<?xml version="1.0" encoding="utf-8"?>
<!-- Generator: Adobe Illustrator 19.2.0, SVG Export Plug-In . SVG Version: 6.00 Build 0)  -->
<svg version="1.1" id="Layer_1" xmlns="http://www.w3.org/2000/svg" xmlns:xlink="http://www.w3.org/1999/xlink" x="0px" y="0px"
	 viewBox="0 0 99 31" style="enable-background:new 0 0 99 31;" xml:space="preserve">
<style type="text/css">
	.st0{fill:#FFFFFE;}
	.st1{enable-background:new    ;}
	.st2{fill:#FFFFFF;}
</style>
<title>study-blue-lockup</title>
<desc>Created with Sketch.</desc>
<g id="Page-1">
	<g id="announce-opt2" transform="translate(-67.000000, -12.000000)">
		<g id="study-blue-lockup" transform="translate(67.000000, 12.000000)">
			<g id="Group">
				<path id="Fill-1" class="st0" d="M36.2,13.1V4.7H40l0.9,1v6.4l-0.9,1H36.2z M34.1,2.7v12.5h6.8L43,13V4.8l-2.1-2.1H34.1z"/>
				<polyline id="Fill-3" class="st0" points="52,5.9 49.6,8.4 47.2,5.9 47.2,2.7 45.2,2.7 45.2,6.8 48.6,10.2 48.6,15.2 50.6,15.2 
					50.6,10.2 54,6.8 54,2.7 52,2.7 52,5.9 				"/>
				<polyline id="Fill-4" class="st0" points="3.8,4.7 6.9,4.7 9,6.8 10.5,5.3 7.8,2.7 2.9,2.7 0.6,4.8 0.6,7.8 2.9,10 6.9,10 
					7.9,10.9 7.9,12.1 6.9,13.1 3.8,13.1 1.8,11.2 0.2,12.6 2.9,15.2 7.8,15.2 10.1,13 10.1,10.1 7.8,7.9 3.8,7.9 2.8,7 2.8,5.7 
					3.8,4.7 				"/>
				<polyline id="Fill-5" class="st0" points="12,4.6 15.3,4.6 15.3,15.2 17.5,15.2 17.5,4.6 20.9,4.6 20.9,2.7 12,2.7 12,4.6 				
					"/>
				<polyline id="Fill-6" class="st0" points="29.1,12.1 28.2,13.1 25.3,13.1 24.3,12.1 24.3,2.7 22.3,2.7 22.3,13 24.5,15.2 
					29,15.2 31.2,13 31.2,2.7 29.1,2.7 29.1,12.1 				"/>
				<polyline id="Fill-7" class="st0" points="85.2,12.1 84.3,13.1 81.3,13.1 80.4,12.1 80.4,2.7 78.3,2.7 78.3,13 80.5,15.2 
					85.1,15.2 87.2,13 87.2,2.7 85.2,2.7 85.2,12.1 				"/>
				<path id="Fill-8" class="st0" d="M58.2,7.9V4.7h3.9l0.9,1V7l-0.9,1L58.2,7.9L58.2,7.9z M58.2,13.1V10h3.9l0.9,1v1.2l-0.9,1
					L58.2,13.1L58.2,13.1z M56.3,2.7v12.5H63l2.1-2.1v-3l-1.1-1.2l1.1-1.2v-3l-2.2-2.1H56.3z"/>
				<polyline id="Fill-9" class="st0" points="69.4,2.7 67.3,2.7 67.3,15.2 76.1,15.2 76.1,13.1 69.4,13.1 69.4,2.7 				"/>
				<polyline id="Fill-10" class="st0" points="90.2,15.2 99,15.2 99,13.1 92.2,13.1 92.2,10 97.3,10 97.3,7.9 92.2,7.9 92.2,4.7 
					99,4.7 99,2.7 90.2,2.7 90.2,15.2 				"/>
			</g>
			<g id="Group_1_" transform="translate(0.000000, 19.000000)">
				<g id="Group-5">
					<g class="st1">
						<path class="st2" d="M5.7,9.1c-0.6,0-1.3-0.3-1.3-0.9l0,0C4,8.8,3.3,9.1,2.5,9.1c-1.1,0-2.1-0.6-2.1-1.8
							c0-1.1,0.9-1.9,2.6-1.9c0.5,0,1,0.1,1.4,0.2V5.2C4.4,4.3,3.7,4,2.9,4C2.3,4,1.7,4.2,1.2,4.4L0.8,3.6C1.4,3.2,2.3,3,3.1,3
							c1.6,0,2.4,0.7,2.4,2v2.4c0,0.4,0.1,0.7,0.4,0.8L5.7,9.1z M3,6.3c-1.1,0-1.5,0.4-1.5,1C1.5,8,2,8.2,2.6,8.2
							c0.8,0,1.8-0.5,1.8-1.3V6.5C4,6.4,3.5,6.3,3,6.3z"/>
						<path class="st2" d="M16.9,8.2c-0.8,0.6-1.8,0.9-2.8,0.9c-2.4,0-4.2-1.8-4.2-4.3s1.8-4.3,4.2-4.3c1,0,2,0.3,2.7,0.9l-0.5,0.8
							c-0.6-0.4-1.4-0.7-2.2-0.7c-1.7,0-3.1,1.4-3.1,3.3S12.3,8,14,8c0.8,0,1.6-0.3,2.2-0.7L16.9,8.2z"/>
						<path class="st2" d="M22.2,9V5.6c0-0.9-0.4-1.6-1.4-1.6c-0.9,0-1.6,0.6-1.6,1.6V9H18V0.5l1.2-0.2v3.6C19.6,3.3,20.4,3,21.1,3
							c1.4,0,2.2,1,2.2,2.4V9H22.2z"/>
						<path class="st2" d="M27.6,9.1c-1.6,0-3-1.1-3-3S25.9,3,27.5,3c1.7,0,2.8,1.3,2.8,2.9c0,0.2,0,0.4,0,0.5h-4.5
							c0.1,1.1,0.8,1.7,1.9,1.7c0.6,0,1.2-0.2,1.7-0.6l0.5,0.7C29.3,8.8,28.5,9.1,27.6,9.1z M29.1,5.6c0-0.9-0.6-1.6-1.6-1.6
							c-0.9,0-1.6,0.6-1.7,1.6H29.1z"/>
						<path class="st2" d="M37,8.7c0,1.8-1.2,2.8-3,2.8c-0.9,0-1.8-0.3-2.4-0.9l0.6-0.8c0.5,0.4,1.1,0.6,1.8,0.6
							c1.1,0,1.9-0.6,1.9-2V8l0,0c-0.4,0.6-1.2,0.9-2,0.9c-1.5,0-2.7-1.1-2.7-2.9c0-1.9,1.3-3,2.8-3c0.8,0,1.6,0.3,2,1V3.1h1V8.7z
							 M35.8,6c0-1.1-0.7-1.9-1.7-1.9c-1.1,0-1.8,0.8-1.8,2C32.3,7.2,33,8,34.1,8C35.2,7.9,35.8,7,35.8,6z"/>
						<path class="st2" d="M44.1,8.7c0,1.8-1.2,2.8-3,2.8c-0.9,0-1.8-0.3-2.4-0.9l0.6-0.8c0.5,0.4,1.1,0.6,1.8,0.6
							c1.1,0,1.9-0.6,1.9-2V8l0,0c-0.4,0.6-1.2,0.9-2,0.9c-1.5,0-2.7-1.1-2.7-2.9c0-1.9,1.3-3,2.8-3c0.8,0,1.6,0.3,2,1l0.1-0.9h1
							L44.1,8.7L44.1,8.7z M42.9,6c0-1.1-0.7-1.9-1.7-1.9c-1.1,0-1.8,0.8-1.8,2c0,1.1,0.7,1.9,1.8,1.9C42.3,7.9,42.9,7,42.9,6z"/>
					</g>
					<g class="st1">
						<path class="st2" d="M54.7,8.1c0.6,0,1.2-0.2,1.2-0.7c0-1.3-3.1-0.5-3.1-2.6c0-1.2,1-1.8,2.1-1.8c0.7,0,1.4,0.2,2,0.6
							l-0.5,0.8C56,4.1,55.4,4,55,4c-0.5,0-1.1,0.2-1.1,0.7C53.8,6,57,5.2,57,7.3c0,1.2-1,1.8-2.3,1.8c-0.9,0-1.5-0.3-2.2-0.8
							L53,7.6C53.5,7.9,54,8.1,54.7,8.1z"/>
						<path class="st2" d="M60.9,9.1c-1.6,0-3-1.1-3-3S59.2,3,60.8,3c1.7,0,2.8,1.3,2.8,2.9c0,0.2,0,0.4,0,0.5H59
							c0.1,1.1,0.8,1.7,1.9,1.7c0.6,0,1.2-0.2,1.7-0.6l0.5,0.7C62.6,8.8,61.7,9.1,60.9,9.1z M62.4,5.6C62.3,4.7,61.8,4,60.8,4
							c-0.9,0-1.6,0.6-1.7,1.6H62.4z"/>
						<path class="st2" d="M64.7,3.1h1L65.8,4l0,0c0.3-0.7,0.8-1,1.6-1c0.3,0,0.5,0,0.8,0.1L68,4.2c-0.2-0.1-0.4-0.1-0.7-0.1
							c-1.2,0-1.5,1-1.5,2.3V9h-1.1C64.7,9,64.7,3.1,64.7,3.1z"/>
						<path class="st2" d="M71.4,7.8l1.7-4.6h1.2L71.9,9h-1.2l-2.3-5.9h1.2L71.4,7.8z"/>
						<path class="st2" d="M75.1,1.2c0-0.4,0.3-0.8,0.8-0.8s0.8,0.3,0.8,0.8S76.3,2,75.9,2S75.1,1.6,75.1,1.2z M75.3,3.1h1.1V9h-1.1
							V3.1z"/>
						<path class="st2" d="M82.8,8.5c-0.6,0.4-1.3,0.7-2,0.7c-1.5,0-3-1-3-3c0-1.9,1.4-3.1,3.1-3.1c0.7,0,1.4,0.2,2,0.6l-0.5,0.8
							C81.8,4.2,81.3,4,80.8,4c-1.1,0-1.9,0.8-1.9,2s0.8,2,1.9,2c0.5,0,1-0.2,1.4-0.4L82.8,8.5z"/>
						<path class="st2" d="M86.4,9.1c-1.6,0-3-1.1-3-3S84.7,3,86.3,3C88,3,89,4.3,89,5.9c0,0.2,0,0.4,0,0.5h-4.5
							c0.1,1.1,0.8,1.7,1.9,1.7c0.6,0,1.2-0.2,1.7-0.6l0.5,0.7C88.1,8.8,87.3,9.1,86.4,9.1z M87.9,5.6C87.8,4.7,87.3,4,86.3,4
							c-0.9,0-1.6,0.6-1.7,1.6H87.9z"/>
					</g>
					<g class="st1">
						<path class="st2" d="M44.4,3.7c0-1.1,0.9-2,2-2s2,0.9,2,2s-0.9,2-2,2C45.3,5.7,44.4,4.8,44.4,3.7z M48,3.7
							c0-0.9-0.7-1.6-1.6-1.6s-1.6,0.7-1.6,1.6s0.7,1.6,1.6,1.6S48,4.6,48,3.7z M46.4,3.8H46v0.9h-0.5V2.5h0.8
							c0.6,0,0.9,0.2,0.9,0.7c0,0.3-0.1,0.5-0.5,0.6l0.5,1h-0.5L46.4,3.8z M46.4,3.5c0.3,0,0.5-0.1,0.5-0.3s-0.2-0.3-0.5-0.3h-0.3
							v0.6H46.4z"/>
					</g>
				</g>
			</g>
		</g>
	</g>
</g>
</svg>
